<?xml version="1.0" encoding="UTF-8"?>
<svg id="Layer_1" xmlns="http://www.w3.org/2000/svg" version="1.1" viewBox="0 0 843.8 961.3">
  <!-- Generator: Adobe Illustrator 30.5.0, SVG Export Plug-In . SVG Version: 2.1.4 Build 167)  -->
  <defs>
    <style>
      .st0 {
        fill: #4b5aa5;
      }

      .st1 {
        fill: #5498d0;
      }

      .st2 {
        fill: #f4942e;
      }

      .st3 {
        fill: #f3ca23;
      }

      .st4 {
        fill: #b5539e;
      }

      .st5 {
        fill: #3db779;
      }

      .st6 {
        fill: #333;
      }

      .st7 {
        fill: #d62b3d;
      }
    </style>
  </defs>
  <path class="st6" d="M835.9,680.3c2.1-2.3,3.3-5,2.9-7-.4-2.2-2.7-4.4-4.9-6-24.7-17.1-62.4-.5-89.2-4.2-18-2.5-73.4-51.5-95.4-70.1-3.8-3.2-4.3-6.9-5.3-12.2l-10.5-55.3-6.3-73.4-.9-7c-4.8-36.2-5.4-89.5-29.9-111.6-10.5-9.4-23.7-12.8-36.3-17-9.4,0-18.5-3.3-27.6-6.1-26.9-8.4-49.5-29.3-56.6-58l8.6-27.8c2.1-6.8,3.5-6.1,7.4-9.2,11.4-8.9,14.9-23.8,18.5-36.3l1.7-6c1.4-4.7,1.4-9.4.8-15.5-2.8-1.9-6.2-2.9-8.5-5.7,3.4-17.6,4.3-36.1.3-53.7-2.9-12.5-8.4-24.5-17.1-34-14.3-15.8-33.3-20.8-54-21.9-9.7-.5-19.3-.4-29,.4-9.1.8-19.4,1.7-27.7,5.8-11.6,5.7-21.3,14.4-28.1,25.3-6.8,11-10.5,23.6-11.9,36.4-.7,6.9-.8,13.8-.3,20.6.2,2.1,3.6,20.7,3.1,21l-9.1,5.7c.5,20.9,5.8,40.6,18.9,56.8l7.9,4.2c2.9,11.3,5.2,22,10.7,32.5-6.9,29.3-28.8,50.7-58,59.8l-36,8.9c-40.8,10-48.5,47.1-52.6,88.3l-12,120.8-11.3,59.8c-26.7,24.5-53.9,47.6-84.3,67.6-8.4,5.5-15.9,8.5-26.2,7.5l-41.3-4.2c-21.1-2.1-48.7,6.5-39.3,20.8-7.8,18.3-9.2,38.3-3.7,57.8l16.9,2.9c8.2,1.4,15.3,2.1,23.2,3.4,4.3.7,8.5,5.3,14.4,5.8-1.5,21.9,4.3,42.6,18.5,59.8,9.2,11.1,18.6,22.2,30.2,31.1,25,19.2,53.2,31.3,82.9,41.8-23.4,11.1-33.2,36.2-26.4,59.7,3.3,11.5,13.5,17.5,25.2,15.9,9.6,5.3,17.4,2,26.3-1.9,25.9-11.2,54.4-13.9,83-12.6,33.3,1.5,64-1.5,95.3-13,28.6-10.5,30.2-10.2,58.7.2,30.6,11.2,60.6,14.3,93.2,12.8,28.9-1.3,58.7.9,84.8,12.9,10.2,4.7,15.8,4.6,26.7,2.9,13.3-2,23.8-7,25.9-22.3,3.1-22.1-5.3-44-28.1-54.3l40.4-15.5c3.5-3.4,7.9-5.5,11.9-7.4,22.3-10.3,40.8-25.8,57-45,16-18.8,24.9-40.6,22.2-65.9,6.7,1.3,11-4.5,14.8-5,13.2-1.8,28.3-2.8,39.9-6.8l2.9-12.6.5-5.5c1-13.3-1.2-26.7-7.6-39.2ZM268.9,718.9l-136.3-17.1c22.9-7.2,45.6-10.8,67.3-20.5,23.6-9.4,51.4-25.1,58.1-48.9,12.3-43.6,17.3-87.3,27-133.3,9.6,26,11.5,50.7,14.6,76,5.9,48.8-13,97.6-30.7,143.9ZM574.5,719c-14.7-40.2-34.2-89.3-31.4-131.1l.8-12c1.8-27.5,7-53.6,14.8-81l15.6,86.9,1.8,9.4,7.4,34.1c6.5,29.7,32.8,44.9,60.7,56,21.3,9.8,43.1,12.8,66.6,20.5l-136.3,17.2Z"/>
  <circle class="st7" cx="423.7" cy="853.7" r="33.7"/>
  <path class="st0" d="M391.6,158.9c2.7-8,12.6-16.2,20-18.8,17-6.1,32.9,0,41.5,13.7,8.8,14.2,7.3,31.6-5.6,43.9-10.8,10.4-28,13.3-42.1,4.3-13.4-8.5-20.4-24-13.8-43.1Z"/>
  <path class="st1" d="M456.3,299.3c6.5,19-6.4,38.4-24.7,42.9s-37.6-6.2-41.1-25.7c-3.4-19.1,6.2-35,24.1-40.5,15.7-4.8,35.3,4.8,41.6,23.3Z"/>
  <circle class="st3" cx="423.7" cy="584.6" r="33.5"/>
  <path class="st5" d="M419.2,480.6c-16.9-2-27.3-15.1-28.8-29-1.7-15.7,7.1-30.7,22.7-35.6,13.1-4.1,27.6,0,35.8,9.3,9,10.2,11,25.2,5.3,36.6-6.3,12.6-18.9,20.6-35,18.7Z"/>
  <path class="st2" d="M412.6,691.5c18.4-6.6,37,4.1,43,21.1,6,16.8-3.7,35.3-21.2,42-16.2,6.2-35.2-2.6-41.5-18.6-6.9-17.6.1-37.6,19.7-44.6Z"/>
  <path class="st4" d="M456.8,43.7c-4.2,14.9-18.4,26.3-34.6,25.3-12.1-.8-24.6-8.8-30-19.2-1.7-3.3-1.6-7.1-5.7-6.6,4.6-1.5,3.7-7,3.8-11.8.3-18.7,17.2-32.2,34.6-31.2,17.5,1,31.6,14.2,33.4,33.8,0,0-.1,4-1.5,9.9Z"/>
</svg>